<svg id="Layer_1" enable-background="new 0 0 128 128" height="512" viewBox="0 0 128 128" width="512" xmlns="http://www.w3.org/2000/svg"><path d="m83.7 63.3-14.2 51c-.8 3-3.9 4.9-7 4.1-2-.5-3.5-2.1-4.1-4.1l-14.2-51z" fill="#ff8f2b"/><path d="m42.1 56.6h43.7v6.7h-43.7z" fill="#ffda2d"/><path d="m85.2 56.6h-42.4c-2.9 0-5.2-2.3-5.2-5.2 0-.2 0-.3 0-.5.3-2.7 2.7-4.7 5.4-4.7h5.7c-2.9 0-5.2-2.3-5.2-5.2 0-.2 0-.3 0-.5.3-2.7 2.7-4.7 5.4-4.7h3.8c-2.9 0-5.2-2.3-5.2-5.2 0-2.1 1.2-4 3.2-4.8 1.9-.7 3.6-2 4.8-3.7 2.5-3.6 4.6-9.4-4.1-12.7 0 0 21.2-.5 21.2 21.2 0 2.9-2.3 5.2-5.2 5.2h11.6c2.7 0 5 2 5.4 4.7.3 2.9-1.8 5.4-4.7 5.7-.2 0-.3 0-.5 0h5.7c2.7 0 5.1 2 5.4 4.7.3 2.9-1.8 5.4-4.7 5.7-.1 0-.3 0-.4 0z" fill="#ff596b"/><g fill="#ffa500"><path d="m79.7 68.6h-12.2c-1 0-1.8.8-1.8 1.8s.8 1.8 1.8 1.8h12.2c1 0 1.8-.8 1.8-1.8s-.8-1.8-1.8-1.8z"/><path d="m76.8 79.1h-9.3c-1 0-1.8.8-1.8 1.8s.8 1.8 1.8 1.8h9.3c1 0 1.8-.8 1.8-1.8s-.8-1.8-1.8-1.8z"/><path d="m73.8 89.6h-6.3c-1 0-1.8.8-1.8 1.8s.8 1.8 1.8 1.8h6.3c1 0 1.8-.8 1.8-1.8s-.9-1.8-1.8-1.8z"/></g><path d="m71 100.1h-3.5c-1 0-1.8.8-1.8 1.8s.8 1.8 1.8 1.8h3.5c1 0 1.8-.8 1.8-1.8s-.8-1.8-1.8-1.8z" fill="#ff8f2b"/></svg>