<svg id="Layer_1" enable-background="new 0 0 128 128" height="512" viewBox="0 0 128 128" width="512" xmlns="http://www.w3.org/2000/svg"><path d="m71.1 112.8c-1 0-1.8-.8-1.8-1.8 0-.2 0-.3.1-.5l13.6-50.1c.3-.9 1.2-1.5 2.1-1.2s1.5 1.2 1.2 2.1l-13.6 50.2c-.2.8-.8 1.3-1.6 1.3z" fill="#b55607"/><path d="m41.8 30c0 2.3-.7 4.6-2 6.6-3.6 5.4-10.9 6.8-16.3 3.1-5.4-3.6-6.8-10.9-3.1-16.3s10.9-6.8 16.3-3.1c3.2 2.2 5.1 5.8 5.1 9.7z" fill="#ffc900"/><g fill="#ffa500"><path d="m30 7.8c-1 0-1.8.8-1.8 1.8v4c0 1 .8 1.8 1.8 1.8s1.8-.8 1.8-1.8v-4c0-1.1-.8-1.8-1.8-1.8z"/><path d="m41.7 20.1c.5 0 .9-.2 1.2-.5l2.8-2.8c.7-.7.7-1.8 0-2.5s-1.8-.7-2.5 0l-2.8 2.8c-.7.7-.7 1.8 0 2.5.4.3.8.5 1.3.5z"/><path d="m50.6 28.3h-4c-1 0-1.8.8-1.8 1.8s.8 1.8 1.8 1.8h4c1 0 1.8-.8 1.8-1.8s-.9-1.8-1.8-1.8z"/><path d="m42.9 40.5c-.7-.7-1.8-.7-2.5 0s-.7 1.8 0 2.5l2.8 2.8c.7.7 1.8.7 2.5 0s.7-1.8 0-2.5z"/><path d="m30 44.8c-1 0-1.8.8-1.8 1.8v4c0 1 .8 1.8 1.8 1.8s1.8-.8 1.8-1.8v-4c0-1-.8-1.8-1.8-1.8z"/><path d="m17.1 40.5-2.8 2.8c-.7.7-.7 1.8 0 2.5s1.8.7 2.5 0l2.8-2.8c.7-.7.7-1.8 0-2.5s-1.8-.7-2.5 0z"/><path d="m15.3 30c0-1-.8-1.8-1.8-1.8h-4c-1 0-1.8.8-1.8 1.8s.8 1.8 1.8 1.8h4c1 0 1.8-.8 1.8-1.8z"/><path d="m16.8 14.3c-.7-.7-1.8-.7-2.5 0s-.7 1.8 0 2.5l2.8 2.8c.7.7 1.8.7 2.5 0s.7-1.8 0-2.5z"/></g><path d="m117 82.2-1-.2c1.7-6.2-2-12.6-8.2-14.2-.1 0-.3-.1-.4-.1-6.1-1.4-12.2 2.2-13.8 8.3l-1-.2c1.7-6.2-1.9-12.8-8.2-14.2-11.5-2.5-14.2 8.1-14.2 8.1l-1-.3c1.7-6.2-2-12.6-8.2-14.2s-12.6 2-14.2 8.2l-1-.2c5.5-19.9 25.8-31.1 45.5-26.2 22.7 5.8 31 25.7 25.7 45.2z" fill="#ff596b"/><path d="m93.6 76-1-.2c1.5-5.4-1.4-12.2-8.2-14.1-5.6-1.5-12.2 2.3-14.2 8l-1-.3c7.6-29.1 22-32.4 22-32.4s10.7 9.8 2.4 39z" fill="#ebecee"/><path d="m107.5 118.5h-87c.4-7.7 5.7-14.3 13.2-16.3 1.5-.4 3-.6 4.5-.6 5.2 0 10.2 2.3 13.6 6.3 2.7-5.7 7.9-9.8 14-11.2 1.5-.3 3-.5 4.5-.5 8.3 0 15.7 5 18.9 12.7 7.6-2.5 15.7 1.6 18.2 9.2 0 .1.1.3.1.4z" fill="#ff8f2b"/><path d="m118.5 116.8h-109c-1 0-1.8.8-1.8 1.8s.8 1.8 1.8 1.8h109c1 0 1.8-.8 1.8-1.8s-.8-1.8-1.8-1.8z" fill="#ffa500"/></svg>